<svg version="1.2" xmlns="http://www.w3.org/2000/svg" viewBox="0 0 720 720" width="64" height="64">
	<title>pika-logo-svg</title>
	<defs>
		<clipPath clipPathUnits="userSpaceOnUse" id="cp1">
			<path d="m0 0h720v720h-720z"/>
		</clipPath>
		<filter x="-50%" y="-50%" width="200%" height="200%" id="f1"> <feGaussianBlur stdDeviation="2.1"/> </filter>
	</defs>
	<style>
		.s0 { fill: #929291 } 
		.s1 { fill: #b8b0ae } 
		.s2 { fill: #ffc508 } 
		.s3 { fill: #b19c9c;stroke: #b19c9c;stroke-width: 2.4 } 
		.s4 { fill: #000000 } 
		.s5 { fill: #ffffff } 
		.s6 { filter: url(#f1);fill: #ec520a } 
		.s7 { filter: url(#f1);fill: #ffffff } 
		.s8 { fill: none;stroke: #000000;stroke-linecap: round;stroke-linejoin: round;stroke-width: 8.5 } 
	</style>
	<g id="Clip-Path: g151" clip-path="url(#cp1)">
		<g id="g151">
			<g id="g11">
				<path id="path7" class="s0" d="m321.5 704.2c0 0-115.8-34.4-141.4-52.1-34.5-23.9-62.8-50.8-81.6-74.1 43.4-135.4 64.9-234.1 96.3-300.7 53.8-222.1 234.2-231.9 323 16.9 7.4 16.1 31.1 33.4 48.3 70 7 15 5.4 31.4 10.8 54.3 5 30.8 4.2 86.5 31 186.6-23.1 21.3-57.2 48.6-93.7 64.5-51.9 22.8-102.9 33.4-102.9 33.4"/>
			</g>
			<g id="layer1">
			</g>
			<g id="g26191">
			</g>
			<g id="g22">
				<path id="path20" class="s1" d="m192.1 281.7c-28.2 85.9-60.7 199-88.7 304.7-32.3-45.8-41.2-57.1-55.9-86.2 30.8-36.7 64.5-67.6 85.6-82.8 15-10.7 32.5-60.8 38.7-81.8 6.3-20.7 10.5-43.7 20.3-53.9z"/>
			</g>
			<g id="g33">
				<path id="path31" class="s1" d="m518.7 263.3c5.2 24 21.3 81.9 40.6 96.9 32 24.8 85 77.1 125.8 133.5-33.4 53.4 2.3 32.5-98.8 131.1-21.7-139.5-52.9-305-83.4-425.2 12.3 13.3 10.6 39.9 15.8 63.7z"/>
			</g>
			<g id="g55">
				<path id="path35" class="s2" d="m153.8 363.5c26.9-58.6-2.1-64 43.8-121.2 21.7-27 16.1-92.8 44.2-133.5 28.1-40.7 56.8-69.2 119.3-71.5 62.5-2.3 121.3 51.8 146.2 99.7 24.9 47.9 23.4 83.7 31.4 121.1 7.9 37.3 32.5 98.6 33.7 109.4-15.3 4.5-19.3 4.1-27.8 8.8-10.9 6.1-19.1 16-28.3 24.3-18.8 17.2-30.5 46-54.9 53.2-17.9 5.4-36.7-6.8-55-10.5-20.1-4-40.3-17.5-60.2-12.6-12.2 3-29.2 23.9-29.2 23.9-12.3 10.2-20.5-26-35.1-32.6-14.5-6.4-33.9 3.9-47.4-4.4-17.7-10.9-15.2-42.5-33.3-52.8-13.7-7.8-26.5 15.8-47.4-1.3z"/>
			</g>
			<g id="g91">
				<path id="path89" class="s3" d="m364.1 201c27.9-0.8 60 19.3 58.2 62.3-19.5 25.3-37.5 55.2-45.6 89.4-8.1 34.3-19.6 18.6-24.9 16.4-5.2-2.3-23.2-62-26.7-74.6-3.5-12.7-16.2-36.7-9.9-53.9 7.2-19.7 27.9-39.1 48.9-39.6z"/>
			</g>
			<g id="g105">
				<path id="path97" class="s4" d="m474.4 199.1c0.2-12.5 4.7-22.5 10-22.4 5.3 0 9.5 10.2 9.3 22.7-0.2 12.5-4.7 22.6-10 22.5-5.3-0.1-9.5-10.3-9.3-22.8z"/>
				<path id="path99" class="s5" d="m479.3 199.9c-0.3-4.2 1.7-7.9 4.3-8.2 2.7-0.3 5 2.8 5.2 7 0.3 4.2-1.7 7.8-4.3 8.1-2.6 0.3-5-2.8-5.2-6.9z"/>
				<path id="path101" class="s4" d="m255.2 191c0.6-12.8 4.8-23.1 9.3-22.9 4.6 0.2 7.8 10.8 7.2 23.7-0.6 12.9-4.8 23.2-9.4 23-4.5-0.3-7.7-10.9-7.1-23.8z"/>
				<path id="path103" class="s5" d="m259.3 191.5c0.1-4.3 2.1-7.8 4.4-7.9 2.3 0 4 3.5 3.9 7.8-0.2 4.3-2.1 7.8-4.4 7.8-2.3 0-4-3.4-3.9-7.7z"/>
			</g>
			<g id="g118">
				<path id="ellipse62" class="s6" d="m482.5 337.8c-22.1 0-39.9-18.9-39.9-42.3 0-23.4 17.8-42.3 39.9-42.3 22.1 0 39.9 18.9 39.9 42.3 0 23.4-17.8 42.3-39.9 42.3z"/>
				<path id="ellipse116" class="s6" d="m257.6 328.2c-23.4 0-42.3-18.3-42.3-40.9 0-22.6 18.9-40.9 42.3-40.9 23.4 0 42.3 18.3 42.3 40.9 0 22.6-18.9 40.9-42.3 40.9z"/>
			</g>
			<g id="g139">
				<path id="path137" class="s7" d="m540.1 560.5c0 6.1-1.1 12-2.8 17.6-0.9 3.2-3 7.9-3 7.9-16.3 35.8-61 59-61 59 0 0-44.7-23.2-61-59-1.4-2.8-3-7.9-3-7.9-1.8-5.6-2.8-11.5-2.8-17.6 0-22.8 17.3-41.3 38.6-41.3 11.1 0 21.2 4.5 28.2 12.6 7-8.1 17.1-12.6 28.3-12.6 21.2 0 38.5 18.5 38.5 41.3z"/>
			</g>
			<g id="layer2">
				<path id="path901" class="s8" d="m363.8 705.1c-191.1 0-345.5-154.4-345.5-345.5 0-191.1 154.4-345.6 345.5-345.6 191.1 0 345.6 154.5 345.6 345.6 0 191.1-154.5 345.5-345.6 345.5z"/>
			</g>
		</g>
	</g>
</svg>